#!OML:ASF F:\VICON\USERDATA\INSTALL\rory3\rory3.ASF
:FULLY-SPECIFIED
:DEGREES
5420
root 9.28288 16.8188 -2.24167 15.121 -63.1239 -8.13615
lowerback 11.2955 2.713 -0.852243
upperback 1.04807 3.59733 2.54825
thorax -5.45183 1.79993 2.57955
lowerneck -20.4401 5.91387 -6.48963
upperneck 21.6523 9.59685 2.53877
head 9.79559 4.16544 3.27328
rclavicle -5.26779e-015 -2.66371e-014
rhumerus -23.5783 26.785 -92.43
rradius 123.519
rwrist -5.65479
rhand -19.0954 24.2099
rfingers 7.12502
rthumb 7.21304 -5.64721
lclavicle -5.26779e-015 -2.66371e-014
lhumerus -11.0211 -8.31468 81.6154
lradius 121.629
lwrist 16.2584
lhand -13.2823 13.4554
lfingers 7.12502
lthumb 12.821 43.0416
rfemur -4.48548 -1.14106 12.9334
rtibia 40.4596
rfoot -22.4973 3.98809
rtoes -16.257
lfemur -38.8545 8.32769 -10.1456
ltibia 58.099
lfoot -12.2453 -10.2616
ltoes -12.3559
5421
root 9.31454 16.7466 -2.33346 15.8067 -63.35 -8.69804
lowerback 11.3907 2.56021 -0.637493
upperback 0.961367 3.43175 2.70653
thorax -5.58455 1.71596 2.64688
lowerneck -20.4954 6.11691 -6.17983
upperneck 21.6884 9.88892 2.12907
head 9.84592 4.27095 3.12592
rclavicle -6.2816e-014 1.03368e-014
rhumerus -22.9535 26.5335 -92.186
rradius 123.156
rwrist -5.50471
rhand -19.2548 24.1624
rfingers 7.12502
rthumb 7.05923 -5.69983
lclavicle -6.2816e-014 1.03368e-014
lhumerus -10.6522 -8.1863 81.7962
lradius 121.714
lwrist 15.4432
lhand -13.2665 13.6153
lfingers 7.12502
lthumb 12.8363 43.2006
rfemur -5.29546 -1.68215 13.2421
rtibia 41.3405
rfoot -23.868 5.12168
rtoes -14.2889
lfemur -39.1172 7.80263 -9.52845
ltibia 58.154
lfoot -13.7782 -9.20546
ltoes -13.6618
5422
root 9.34707 16.686 -2.42837 16.1083 -63.6305 -8.76019
lowerback 11.4116 2.47198 -0.754912
upperback 0.904985 3.30769 2.81932
thorax -5.66266 1.66016 2.85069
lowerneck -20.5681 6.2729 -5.8557
upperneck 21.5777 10.1145 1.69416
head 9.85496 4.35027 2.95502
rclavicle -7.46436e-014 1.70955e-014
rhumerus -22.4134 26.286 -91.9713
rradius 122.871
rwrist -5.20425
rhand -19.4399 24.2827
rfingers 7.12502
rthumb 6.88048 -5.5855
lclavicle -7.46436e-014 1.70955e-014
lhumerus -10.3424 -7.99152 82.0435
lradius 121.82
lwrist 15.2657
lhand -12.9011 13.5349
lfingers 7.12502
lthumb 13.1886 43.0978
rfemur -6.31412 -2.07896 13.2995
rtibia 42.4194
rfoot -24.7027 7.07607
rtoes -7.77669
lfemur -39.4628 7.22443 -9.11987
ltibia 58.1854
lfoot -14.8378 -9.16547
ltoes -14.7493
5423
root 9.38122 16.6229 -2.52161 16.1073 -63.9382 -8.64497
lowerback 11.5033 2.40434 -0.948657
upperback 0.927879 3.1977 2.92198
thorax -5.70023 1.61163 3.08411
lowerneck -20.6484 6.42553 -5.8146
upperneck 21.4662 10.3411 1.5912
head 9.82873 4.44992 2.94163
rclavicle 2.85256e-014 -2.06736e-014
rhumerus -21.8959 25.9334 -91.7398
rradius 122.675
rwrist -4.70408
rhand -19.3261 24.3047
rfingers 7.12502
rthumb 6.99038 -5.55985
lclavicle 2.85256e-014 -2.06736e-014
lhumerus -10.1414 -7.76878 82.3795
lradius 121.983
lwrist 15.3574
lhand -12.4707 13.4987
lfingers 7.12502
lthumb 13.6034 43.0343
rfemur -7.28834 -2.89654 13.3574
rtibia 43.5784
rfoot -25.4966 7.54913
rtoes -6.40731
lfemur -39.6838 6.69414 -8.78332
ltibia 58.2086
lfoot -15.4994 -8.67222
ltoes -15.0708
5424
root 9.41254 16.5627 -2.60848 15.9051 -64.3074 -8.52501
lowerback 11.7079 2.31813 -1.18179
upperback 1.01427 3.05832 3.0946
thorax -5.7368 1.54886 3.4171
lowerneck -20.6299 6.60966 -5.92402
upperneck 21.3686 10.65 1.49181
head 9.7779 4.57611 2.95869
rclavicle 1.17681e-013 -9.14409e-015
rhumerus -21.5042 25.7488 -91.4215
rradius 122.589
rwrist -4.03252
rhand -18.9348 24.1684
rfingers 7.12502
rthumb 7.3681 -5.68328
lclavicle 1.17681e-013 -9.14409e-015
lhumerus -10.0673 -7.4301 82.863
lradius 122.039
lwrist 15.0194
lhand -12.5795 13.5937
lfingers 7.12502
lthumb 13.4985 43.1362
rfemur -8.06129 -4.02161 13.4881
rtibia 44.6941
rfoot -26.5211 6.00329
rtoes -14.7389
lfemur -39.7271 6.34177 -8.48989
ltibia 58.251
lfoot -15.906 -7.66091
ltoes -15.7261
5425
root 9.43452 16.5243 -2.68636 15.3252 -64.7409 -8.0745
lowerback 11.9268 2.3045 -1.5672
upperback 1.13367 2.99128 3.2207
thorax -5.75531 1.52423 3.77626
lowerneck -20.6229 6.74006 -5.89654
upperneck 21.2773 10.8963 1.17528
head 9.75791 4.65595 2.8743
rclavicle 1.96797e-014 4.45278e-014
rhumerus -21.4064 25.6671 -91.2226
rradius 122.613
rwrist -3.67182
rhand -19.1852 24.1419
rfingers 7.12502
rthumb 7.1264 -5.71809
lclavicle 1.96797e-014 4.45278e-014
lhumerus -10.0158 -7.3082 83.4498
lradius 122.112
lwrist 14.9583
lhand -13.1724 13.9933
lfingers 7.12502
lthumb 12.927 43.5729
rfemur -8.61865 -4.63371 13.3914
rtibia 45.6312
rfoot -27.259 4.85332
rtoes -21.2977
lfemur -39.6315 6.13831 -8.42651
ltibia 58.2739
lfoot -16.056 -7.16428
ltoes -16.8182
5426
root 9.44602 16.5092 -2.76171 14.6557 -65.4443 -7.54367
lowerback 11.6967 2.52407 -2.32555
upperback 1.53104 3.18313 3.43499
thorax -5.2778 1.62407 4.41398
lowerneck -20.76 6.77174 -5.86251
upperneck 21.046 11.0412 0.7292
head 9.72954 4.67846 2.73402
rclavicle -6.16232e-015 3.18055e-015
rhumerus -21.0772 25.5988 -90.6565
rradius 122.656
rwrist -3.78108
rhand -19.9244 24.2622
rfingers 7.12502
rthumb 6.41281 -5.62075
lclavicle -6.16232e-015 3.18055e-015
lhumerus -9.63883 -7.39519 84.3096
lradius 122.179
lwrist 15.2265
lhand -14.0153 14.3698
lfingers 7.12502
lthumb 12.1144 43.9991
rfemur -9.03928 -4.41806 13.167
rtibia 46.3085
rfoot -27.6295 5.01918
rtoes -21.3809
lfemur -39.3703 6.23662 -8.47695
ltibia 58.2407
lfoot -16.0771 -7.01115
ltoes -17.7772
